<?xml version="1.0" standalone="no"?>
<!DOCTYPE svg PUBLIC "-//W3C//DTD SVG 20010904//EN"
 "http://www.w3.org/TR/2001/REC-SVG-20010904/DTD/svg10.dtd">
<svg version="1.0" xmlns="http://www.w3.org/2000/svg"
 width="526.000000pt" height="105.000000pt" viewBox="0 0 526.000000 105.000000"
 preserveAspectRatio="xMidYMid meet">
<metadata>
Created by potrace 1.15, written by Peter Selinger 2001-2017
</metadata>
<g transform="translate(0.000000,105.000000) scale(0.100000,-0.100000)"
fill="#000000" stroke="none">
<path d="M0 525 l0 -525 2630 0 2630 0 0 525 0 525 -2630 0 -2630 0 0 -525z
m570 120 l0 -325 -65 0 c-63 0 -65 1 -65 26 l0 25 -35 -27 c-37 -28 -111 -42
-159 -30 -36 9 -84 53 -106 97 -15 29 -20 59 -20 122 0 98 22 151 83 201 31
25 49 31 100 34 54 3 67 0 100 -22 l37 -25 0 124 0 125 65 0 65 0 0 -325z
m241 307 c31 -26 31 -78 0 -104 -54 -43 -131 -10 -131 56 0 60 79 89 131 48z
m799 -2 c44 -44 8 -120 -57 -120 -40 0 -83 37 -83 71 0 60 96 93 140 49z
m1070 -305 l0 -325 -65 0 -65 0 0 325 0 325 65 0 65 0 0 -325z m1680 0 l0
-325 -40 0 c-38 0 -40 1 -40 32 l0 32 -27 -26 c-41 -37 -66 -48 -117 -48 -121
0 -185 76 -186 220 0 80 27 157 66 192 68 60 188 64 244 8 l20 -20 0 130 0
130 40 0 40 0 0 -325z m-2460 180 l0 -65 50 0 50 0 0 -50 0 -50 -50 0 -50 0 0
-103 c0 -123 9 -142 63 -135 l37 4 0 -48 c0 -57 -14 -68 -93 -68 -67 0 -117
30 -134 80 -7 19 -12 88 -12 153 l-1 117 -35 0 -35 0 0 50 0 50 34 0 c34 0 35
1 38 47 l3 48 60 17 c33 9 63 17 68 17 4 1 7 -28 7 -64z m1380 0 l0 -65 55 0
c54 0 55 0 55 -30 0 -30 -1 -30 -55 -30 l-55 0 0 -145 c0 -134 2 -147 21 -166
16 -16 29 -20 55 -16 32 5 34 4 34 -23 0 -33 -14 -40 -77 -40 -36 0 -50 6 -74
29 l-29 29 0 166 0 166 -40 0 c-38 0 -40 2 -40 30 0 28 2 30 40 30 l40 0 0 55
c0 48 3 57 23 65 44 17 47 13 47 -55z m-2086 -80 c34 -23 36 -23 36 -5 0 18 7
20 70 20 l70 0 0 -227 c-1 -245 -6 -274 -54 -337 -39 -51 -105 -79 -201 -84
-44 -2 -99 1 -122 7 l-43 12 0 59 0 58 58 -20 c59 -21 121 -20 163 3 29 15 59
69 59 107 l0 34 -31 -26 c-38 -32 -67 -40 -128 -34 -64 6 -108 39 -137 102
-39 84 -28 210 25 284 49 70 167 93 235 47z m1172 -1 c66 -48 69 -59 72 -250
l3 -174 -65 0 c-65 0 -66 0 -66 27 l0 26 -22 -20 c-13 -11 -33 -26 -45 -32
-29 -15 -102 -14 -133 2 -38 19 -70 74 -70 121 0 86 63 138 181 151 79 8 93
16 85 43 -14 44 -99 49 -180 11 -22 -11 -41 -19 -43 -19 -2 0 -3 24 -1 53 l3
52 50 18 c70 24 193 20 231 -9z m668 16 c21 -8 26 -16 26 -44 l0 -35 -41 14
c-76 27 -144 13 -156 -33 -11 -43 2 -54 120 -108 72 -32 100 -71 93 -127 -5
-45 -37 -83 -83 -103 -38 -17 -123 -18 -175 -3 -36 9 -38 12 -38 49 l0 38 53
-20 c56 -21 125 -21 152 2 20 16 19 64 -1 80 -8 8 -52 32 -97 54 -76 38 -83
44 -95 83 -12 38 -12 47 5 80 32 68 154 105 237 73z m1953 -1 c77 -29 122
-109 123 -217 0 -92 -30 -159 -92 -199 -37 -25 -51 -28 -124 -28 -75 0 -86 3
-125 30 -62 44 -89 101 -89 190 0 103 34 168 109 207 58 30 144 38 198 17z
m-4167 -219 l0 -220 -65 0 -65 0 0 220 0 220 65 0 65 0 0 -220z m800 0 l0
-220 -70 0 -70 0 0 220 0 220 70 0 70 0 0 -220z m1920 88 c0 -190 18 -241 87
-254 47 -9 97 16 120 58 14 26 18 63 21 181 l4 147 34 0 34 0 0 -220 0 -220
-35 0 c-33 0 -35 2 -35 32 l0 32 -27 -26 c-41 -38 -66 -48 -120 -48 -58 0
-105 26 -130 72 -15 27 -19 63 -21 206 l-4 172 36 0 36 0 0 -132z m1030 -88
l0 -220 -40 0 -40 0 0 220 0 220 40 0 40 0 0 -220z"/>
<path d="M290 638 c-27 -30 -33 -57 -28 -125 4 -43 10 -61 28 -75 34 -27 97
-21 122 12 37 50 36 152 -3 191 -27 27 -92 26 -119 -3z"/>
<path d="M4103 696 c-63 -28 -95 -124 -73 -216 22 -90 103 -132 180 -93 51 26
70 72 70 166 0 73 -2 79 -33 113 -38 42 -93 53 -144 30z"/>
<path d="M1081 634 c-40 -51 -40 -147 0 -190 22 -24 68 -31 104 -18 46 18 63
158 24 208 -16 21 -29 26 -64 26 -35 0 -48 -5 -64 -26z"/>
<path d="M4833 694 c-51 -26 -77 -76 -77 -153 -1 -79 21 -124 74 -152 69 -37
156 -12 190 56 19 38 19 150 0 190 -33 66 -118 93 -187 59z"/>
</g>
</svg>
