<svg version="1.1" class="lzLogo" id="Layer_1" xmlns="http://www.w3.org/2000/svg" xmlns:xlink="http://www.w3.org/1999/xlink" x="0px" y="0px" width="100px" height="30px" viewBox="0 0 100 30" enable-background="new 0 0 100 30" xml:space="preserve">
                    <g>
                    <path class="letter" d="M11,0L8,14.9h9.1l-0.6,3H3.7L7.3,0H11z"></path>
                    <path class="letter" d="M32,5.4L29.5,18h-3.3l0.6-2.2l-0.1,0c-0.9,1.5-2.6,2.3-4.8,2.3c-3.1,0-4.3-1.4-3.8-4.3l1.7-8.5h3.3 l-1.5,7.7c-0.2,1.1-0.2,1.8,0.1,2.1c0.3,0.3,0.9,0.5,1.9,0.5c2.1,0,3.4-1.2,3.8-3.5l1.4-6.9H32z"></path>
                    <path class="letter" d="M31,18l3.6-18h3.3l-1.4,7.2l0.1,0c0.8-1.3,2.4-2,4.7-2c2,0,3.2,0.4,3.8,1.3c0.5,0.9,0.6,2.5,0.1,4.9 c-0.5,2.6-1.2,4.4-2.2,5.3c-0.9,0.9-2.4,1.4-4.5,1.4c-2.1,0-3.4-0.7-3.7-2.1h-0.1l-0.3,2H31z M39.6,7.6c-2.1,0-3.4,1.2-3.9,3.7 c-0.4,1.9-0.4,3.1-0.2,3.7c0.3,0.5,1,0.8,2.3,0.8c1.3,0,2.2-0.2,2.7-0.7c0.5-0.5,0.9-1.6,1.2-3.4c0.3-1.7,0.4-2.7,0.1-3.2 C41.5,7.9,40.8,7.6,39.6,7.6z"></path>
                    <path class="letter" d="M48.2,5.4h3.3l-0.6,1.8l0.1,0c1-1.3,2.4-2,4.1-2c2.4,0,3.3,1.4,2.7,4.2l-0.2,0.9h-3.1 c0.1-0.3,0.2-0.6,0.2-0.7c0.3-1.3-0.2-2-1.3-2c-1.6,0-2.6,1-3,3L48.9,18h-3.3L48.2,5.4z"></path>
                    <path class="letter" id="I" d="M62.9,5.4L60.4,18h-3.3l2.5-12.6H62.9z"></path>
                    <path class="letter" d="M64.7,5.4h10.6L74.8,8l-8.8,7.7h7.3L72.8,18H61.6l0.5-2.6l8.7-7.6h-6.6L64.7,5.4z"></path>
                    <path class="letter" d="M82.6,5.2c2.6,0,4.3,0.4,4.9,1.2c0.7,0.8,0.7,2.4,0.2,4.9c-0.6,2.8-1.3,4.6-2.3,5.5c-1,0.9-2.7,1.3-5.3,1.3 c-2.8,0-4.5-0.4-5.2-1.2c-0.7-0.8-0.7-2.6-0.2-5.3c0.5-2.6,1.3-4.4,2.2-5.2C78.1,5.6,79.9,5.2,82.6,5.2z M82.1,7.6 c-1.4,0-2.3,0.2-2.7,0.7c-0.5,0.5-0.9,1.5-1.2,3.2c-0.4,1.9-0.4,3.1-0.2,3.6c0.3,0.5,1.1,0.7,2.5,0.7c1.4,0,2.3-0.3,2.7-0.8 c0.5-0.5,0.9-1.7,1.3-3.6c0.3-1.6,0.3-2.6,0.1-3.1C84.3,7.8,83.5,7.6,82.1,7.6z"></path>
                    <path class="letter" d="M95,0l-3.6,18h-3.3l3.6-18H95z"></path>
                    <path class="lzwoosh" d="M2.7,23.4c0,0-0.1,0-0.3,0.1L1,29.7c41.9-12.3,98.4-4.5,98.4-4.5C59.9,15.2,2.7,23.4,2.7,23.4z"></path>
                    <path class="letter" d="M63.5,2.6c-0.1,0.4-0.5,0.8-0.9,0.8h-1.8c-0.4,0-0.7-0.4-0.6-0.8l0.3-1.8C60.6,0.4,61,0,61.4,0h1.8 c0.4,0,0.7,0.4,0.6,0.8L63.5,2.6z"></path>
                </g>
</svg>